# xmcd
#
# Track frame offsets: 
#        150
#        4622
#        25305
#        42875
#        62387
#        70052
#        92527
#        119522
#        142185
#        163830
#        186530
#        191107
#        211165
#        219887
#        241097
#
# Disc length: 3472 seconds
#
# Revision: 10
# Processed by: cddbd v1.5.2PL0 Copyright (c) Steve Scherf et al.
# Submitted via: ExactAudioCopyFreeDBPlugin 1.0
#
DISCID=d10d8e0f
DTITLE=Faith Evans - Keep the Faith
DYEAR=1998
DGENRE=R&B
TTITLE0=Faith (Intro)
TTITLE1=Love Like This
TTITLE2=All Night Long  (feat. Puff Daddy)
TTITLE3=Sunny Days
TTITLE4=Tears Away (Interlude)
TTITLE5=My First Love
TTITLE6=Anything You Need
TTITLE7=No Way
TTITLE8=Life Will Pass You By
TTITLE9=Keep the Faith
TTITLE10=Special Place (Interlude)
TTITLE11=Never Gonna Let You Go
TTITLE12=Stay (Interlude)
TTITLE13=Caramel Kisses  (feat. 112)
TTITLE14=Lately I
EXTD=
EXTT0=
EXTT1=
EXTT2=
EXTT3=
EXTT4=
EXTT5=
EXTT6=
EXTT7=
EXTT8=
EXTT9=
EXTT10=
EXTT11=
EXTT12=
EXTT13=
EXTT14=
PLAYORDER=
